<svg width="165" height="14" viewBox="0 0 165 14" fill="none" xmlns="http://www.w3.org/2000/svg">
<path d="M157.774 13.6422C156.275 13.6422 155.01 13.3705 153.98 12.8274C152.95 12.2843 152.087 11.6213 151.39 10.838L153.298 9.56837C153.586 9.88416 153.935 10.2191 154.344 10.5728C155.263 11.3675 156.391 11.8421 157.729 11.8421C158.411 11.8421 159.081 11.7635 159.74 11.6053C160.398 11.4474 160.948 11.1852 161.388 10.8189C161.827 10.4528 162.047 9.95386 162.047 9.32228C162.047 8.28609 161.251 7.66007 160.115 7.37049C159.57 7.23171 159.04 7.16233 158.524 7.16233C158.206 7.16233 157.915 7.17466 157.65 7.19994C157.385 7.22555 157.146 7.26009 156.934 7.30449L155.535 6.20755L160.768 2.08437H152.813V0.189631H162.892L163.887 1.69555L159.104 5.46466C161.008 5.46466 163.12 6.12987 164.012 7.6172C164.292 8.08441 164.432 8.59602 164.432 9.15174C164.432 10.0612 164.133 10.8537 163.534 11.5294C162.936 12.2054 162.137 12.7263 161.138 13.0926C160.137 13.459 159.017 13.6422 157.774 13.6422Z" fill="currentColor"/>
<path d="M122.693 13.4531L126.7 8.56456H131.644V13.4531H133.871V0.189935H125.436C124.583 0.189935 123.803 0.369777 123.095 0.729619C122.387 1.08986 121.819 1.57925 121.393 2.1982C120.967 2.81746 120.754 3.50572 120.754 4.26378C120.754 5.05941 120.988 5.78257 121.455 6.43301C121.923 7.08368 122.541 7.60147 123.311 7.98695C123.579 8.12048 123.854 8.23088 124.14 8.31816L119.908 13.4723L122.693 13.4531ZM131.644 6.59427H126.054C125.532 6.59427 125.047 6.48664 124.6 6.27204C124.154 6.05738 123.796 5.77302 123.528 5.41933C123.26 5.06557 123.126 4.68038 123.126 4.26378C123.126 3.87212 123.26 3.51812 123.528 3.20233C123.796 2.88686 124.154 2.63391 124.6 2.44428C125.047 2.25528 125.532 2.16022 126.054 2.16022H131.644V6.59427Z" fill="currentColor"/>
<path d="M79.0801 13.4527V0.189526H87.5157C88.3682 0.189526 89.1485 0.369368 89.8566 0.729209C90.5648 1.08945 91.132 1.57884 91.5582 2.19779C91.9845 2.81705 92.1976 3.50531 92.1976 4.26337C92.1976 5.059 91.9638 5.78216 91.4963 6.4326C91.0288 7.08327 90.4101 7.60106 89.6401 7.98654C88.8701 8.37141 88.0245 8.56415 87.1032 8.56415H81.3077V13.4527H79.0801ZM81.3077 6.59386H86.8969C87.4194 6.59386 87.9041 6.48623 88.351 6.27163C88.7979 6.05697 89.1554 5.7726 89.4235 5.41892C89.6916 5.06516 89.8257 4.67997 89.8257 4.26337C89.8257 3.87171 89.6916 3.51771 89.4235 3.20192C89.1554 2.88645 88.7979 2.6335 88.351 2.44387C87.9041 2.25487 87.4194 2.15981 86.8969 2.15981H81.3077V6.59386Z" fill="currentColor"/>
<path d="M64.9366 13.6422C63.6576 13.6422 62.4887 13.4686 61.4303 13.121C60.3715 12.7738 59.45 12.2874 58.6666 11.6623C57.8827 11.0369 57.2778 10.3107 56.8515 9.48325C56.4251 8.65584 56.2119 7.76862 56.2119 6.82125C56.2119 5.87361 56.4251 4.98632 56.8515 4.15895C57.2778 3.33182 57.8827 2.60526 58.6666 1.97984C59.45 1.35474 60.3715 0.868421 61.4303 0.521211C62.4887 0.173921 63.6576 9.53674e-07 64.9366 9.53674e-07C66.2015 9.53674e-07 67.3633 0.173921 68.4221 0.521211C69.4806 0.868421 70.402 1.35474 71.1858 1.97984C71.9698 2.60526 72.578 3.33182 73.0114 4.15895C73.4444 4.98632 73.6609 5.87361 73.6609 6.82125C73.6609 7.76862 73.4444 8.65584 73.0114 9.48325C72.578 10.3107 71.9698 11.0369 71.1858 11.6623C70.402 12.2874 69.4806 12.7738 68.4221 13.121C67.3633 13.4686 66.2015 13.6422 64.9366 13.6422ZM64.9366 11.6528C65.885 11.6528 66.7514 11.5294 67.5352 11.2833C68.319 11.0369 68.9995 10.6958 69.5773 10.2601C70.1546 9.82433 70.6015 9.31272 70.9176 8.72555C71.2339 8.13807 71.392 7.5034 71.392 6.82125C71.392 6.13911 71.2339 5.50413 70.9176 4.91692C70.6015 4.32947 70.1546 3.81782 69.5773 3.38211C68.9995 2.94632 68.319 2.60526 67.5352 2.35887C66.7514 2.11279 65.885 1.98939 64.9366 1.98939C63.9876 1.98939 63.1182 2.11279 62.3272 2.35887C61.5367 2.60526 60.8525 2.94632 60.2752 3.38211C59.6978 3.81782 59.2544 4.32947 58.9448 4.91692C58.6356 5.50413 58.4809 6.13911 58.4809 6.82125C58.4809 7.5034 58.6356 8.13807 58.9448 8.72555C59.2544 9.31272 59.6978 9.82433 60.2752 10.2601C60.8525 10.6958 61.5367 11.0369 62.3272 11.2833C63.1182 11.5294 63.9876 11.6528 64.9366 11.6528Z" fill="currentColor"/>
<path d="M45.2651 13.4527V2.15981H39.7793V0.189526H53.103V2.15981H47.4928V13.4527H45.2651Z" fill="currentColor"/>
<path d="M28.6832 13.6422C27.5281 13.6422 26.4451 13.4812 25.4346 13.1589C24.4239 12.837 23.537 12.3759 22.774 11.7758C22.011 11.176 21.4165 10.4559 20.9901 9.61586C20.5638 8.77581 20.3506 7.84448 20.3506 6.82125C20.3506 5.84858 20.5742 4.95181 21.021 4.13053C21.4678 3.30963 22.076 2.59602 22.8461 1.98939C23.6162 1.38316 24.5032 0.912868 25.5068 0.577893C26.5106 0.243315 27.5693 0.0758677 28.6832 0.0758677C29.6181 0.0758677 30.5121 0.186236 31.3643 0.407368C32.217 0.6285 32.9901 0.906393 33.6846 1.24129C34.3793 1.57587 34.9325 1.92624 35.345 2.29255L34.025 4.01676C33.5303 3.63774 33.0006 3.30316 32.4369 3.01263C31.8733 2.72218 31.2646 2.49489 30.6114 2.33053C29.9585 2.16647 29.2468 2.08437 28.4767 2.08437C27.7483 2.08437 27.0366 2.19481 26.3421 2.41563C25.6479 2.63676 25.0188 2.95255 24.4551 3.36331C23.8912 3.77376 23.4443 4.27271 23.1143 4.86024C22.7844 5.44737 22.6196 6.10113 22.6196 6.82125C22.6196 7.6172 22.7911 8.31477 23.1349 8.91489C23.479 9.51471 23.9462 10.0168 24.5374 10.4211C25.1289 10.8254 25.7956 11.1316 26.5381 11.3401C27.2807 11.5485 28.0504 11.6528 28.848 11.6528C29.6732 11.6528 30.409 11.5547 31.0552 11.3589C31.701 11.163 32.2788 10.92 32.7877 10.6295C33.2963 10.339 33.7568 10.0547 34.1694 9.77715L35.242 11.4822C34.8569 11.7727 34.3309 12.0885 33.6642 12.4296C32.9971 12.7707 32.2409 13.0581 31.3956 13.2915C30.5496 13.5256 29.6456 13.6422 28.6832 13.6422Z" fill="currentColor"/>
<path d="M15.6134 13.4527V0.189526H13.4063L1.8725 10.8783C1.92688 10.5792 1.9571 10.2958 1.99033 9.99477C2.03833 9.55902 2.07627 9.11062 2.10379 8.64957C2.13132 8.18854 2.15515 7.72102 2.17596 7.24733C2.19678 6.77365 2.21021 6.30953 2.21725 5.85463C2.2243 5.40005 2.22766 4.96403 2.22766 4.54742V0.189526H0V13.4527H2.24814L13.7627 3.04466C13.7426 3.21147 13.7302 3.37553 13.7157 3.54297C13.6882 3.85876 13.6537 4.19981 13.6127 4.56621C13.5714 4.9326 13.5335 5.30816 13.4993 5.69366C13.4646 6.07884 13.4371 6.46403 13.4167 6.84951C13.3962 7.23469 13.3857 7.59797 13.3857 7.93905V13.4527H15.6134Z" fill="currentColor"/>
<path d="M113.959 13.4527V0.189526H111.752L100.218 10.8783C100.272 10.5792 100.303 10.2958 100.336 9.99477C100.383 9.55902 100.422 9.11062 100.449 8.64957C100.477 8.18854 100.501 7.72102 100.522 7.24733C100.542 6.77365 100.556 6.30953 100.563 5.85463C100.57 5.40005 100.573 4.96403 100.573 4.54742V0.189526H98.3457V13.4527H100.594L112.109 3.04466C112.088 3.21147 112.076 3.37553 112.061 3.54297C112.034 3.85876 111.999 4.19981 111.958 4.56621C111.917 4.9326 111.879 5.30816 111.845 5.69366C111.81 6.07884 111.783 6.46403 111.762 6.84951C111.742 7.23469 111.731 7.59797 111.731 7.93905V13.4527H113.959Z" fill="currentColor"/>
</svg>
